<svg width="20" height="20" viewBox="0 0 20 20" fill="none" xmlns="http://www.w3.org/2000/svg">
<path d="M15.6313 10.534C15.6224 8.90075 16.3614 7.668 17.8572 6.76012C17.0203 5.56297 15.7559 4.90432 14.0865 4.77525C12.506 4.65064 10.7787 5.69648 10.1465 5.69648C9.47873 5.69648 7.94727 4.81976 6.74525 4.81976C4.26108 4.85981 1.62109 6.80018 1.62109 10.7477C1.62109 11.9137 1.83479 13.1182 2.26217 14.3614C2.83202 15.9947 4.8888 20 7.03463 19.9332C8.15651 19.9065 8.94895 19.1366 10.4092 19.1366C11.8249 19.1366 12.5595 19.9332 13.8104 19.9332C15.9741 19.9021 17.835 16.2617 18.3781 14.6239C15.4755 13.2577 15.6313 10.6186 15.6313 10.534ZM13.1115 3.22652C14.3269 1.7846 14.2156 0.47174 14.18 0C13.107 0.0623053 11.865 0.729862 11.1571 1.55318C10.378 2.43436 9.91947 3.5247 10.0174 4.753C11.1794 4.84201 12.2389 4.24566 13.1115 3.22652Z" fill="black"/>
</svg>
