<svg width="78" height="72" viewBox="0 0 78 72" fill="none" xmlns="http://www.w3.org/2000/svg">
<rect width="78" height="72" rx="3" fill="#FF9F0D"/>
<path d="M39 28.5V36" stroke="white" stroke-width="1.5" stroke-linecap="round" stroke-linejoin="round"/>
<path d="M45.4952 39.75L39 36" stroke="white" stroke-width="1.5" stroke-linecap="round" stroke-linejoin="round"/>
<path d="M47.7761 31.5806H54.0261V25.3306" stroke="white" stroke-width="1.5" stroke-linecap="round" stroke-linejoin="round"/>
<path d="M48.7227 45.7227C46.7997 47.6457 44.3497 48.9553 41.6825 49.4858C39.0153 50.0164 36.2506 49.7441 33.7381 48.7033C31.2256 47.6626 29.0782 45.9003 27.5673 43.6391C26.0564 41.3779 25.25 38.7195 25.25 36C25.25 33.2805 26.0564 30.6221 27.5673 28.3609C29.0782 26.0997 31.2256 24.3374 33.7381 23.2967C36.2506 22.256 39.0153 21.9837 41.6825 22.5142C44.3497 23.0448 46.7997 24.3543 48.7227 26.2773L54.026 31.5806" stroke="white" stroke-width="1.5" stroke-linecap="round" stroke-linejoin="round"/>
</svg>
