<svg width="120" height="72" viewBox="0 0 120 72" fill="none" xmlns="http://www.w3.org/2000/svg">
<path d="M93.6548 3.54383C90.7931 5.37843 88.5006 7.98056 87.0373 11.0554C85.574 14.1302 84.9982 17.5548 85.3752 20.9412L60.0286 37.2432L34.678 20.9512C35.0632 17.5638 34.4901 14.1359 33.0245 11.0599C31.5589 7.98398 29.2598 5.38412 26.3904 3.55788C22.5815 0.923723 17.9498 -0.235248 13.3542 0.295872C11.1864 0.508794 9.09226 1.19932 7.22121 2.31814C5.35016 3.43695 3.74837 4.95647 2.53023 6.76819C1.31208 8.57991 0.507622 10.6391 0.174288 12.7989C-0.159046 14.9586 -0.0130305 17.1655 0.601907 19.262C1.83378 23.7341 4.64061 27.6061 8.5016 30.1594C11.2661 32.1479 14.5333 33.3142 17.9283 33.5246C21.3232 33.735 24.7086 32.981 27.696 31.3491L47.3723 45.3661L28.6477 57.413C27.7627 57.9773 26.9995 58.7141 26.4034 59.5797C25.8073 60.4453 25.3904 61.4222 25.1775 62.4525C24.9646 63.4827 24.9599 64.5453 25.1638 65.5774C25.3677 66.6095 25.7759 67.59 26.3644 68.4609C26.9506 69.3299 27.7039 70.0726 28.5802 70.6454C29.4565 71.2182 30.438 71.6095 31.467 71.7964C32.4961 71.9833 33.5521 71.962 34.5728 71.7337C35.5936 71.5054 36.5586 71.0748 37.4112 70.467L60.0286 54.3737L82.646 70.4791C83.4995 71.1056 84.4703 71.5528 85.5002 71.7938C86.5301 72.0349 87.5978 72.0649 88.6396 71.882C89.6813 71.6992 90.6755 71.3072 91.5626 70.7296C92.4497 70.152 93.2115 69.4007 93.8024 68.5206C94.3932 67.6406 94.8009 66.6499 95.0011 65.608C95.2012 64.5661 95.1897 63.4943 94.9672 62.457C94.7447 61.4197 94.3158 60.438 93.7062 59.571C93.0965 58.7039 92.3188 57.9693 91.4194 57.411L72.6729 45.3741L92.3632 31.3511C95.3502 32.9836 98.7354 33.7383 102.13 33.5286C105.525 33.3188 108.793 32.1533 111.558 30.1655C119.775 24.6004 122.458 14.1002 117.534 6.75769C112.609 -0.584828 101.89 -2.02123 93.6548 3.54383ZM35.0959 67.203C34.2416 67.78 33.1963 67.9991 32.1833 67.8136C31.1702 67.6281 30.2695 67.0526 29.6734 66.21C29.3849 65.7829 29.1848 65.3021 29.0849 64.7959C28.9851 64.2898 28.9875 63.7687 29.0921 63.2636C29.1967 62.7584 29.4014 62.2795 29.6939 61.8552C29.9864 61.4308 30.3609 61.0698 30.7951 60.7934L50.8872 47.8657L56.5636 51.9061L35.0959 67.203ZM90.9596 63.265C91.1162 64.0261 91.0409 64.817 90.7435 65.5347C90.446 66.2523 89.9402 66.8635 89.2918 67.2888C88.6434 67.7141 87.8825 67.9337 87.108 67.9191C86.3335 67.9045 85.5814 67.6564 84.9493 67.207L28.8877 27.2846C28.5458 27.0414 28.1365 26.9121 27.7174 26.915C27.2984 26.9179 26.8908 27.0528 26.5523 27.3007C24.1837 28.8517 21.3988 29.6383 18.5716 29.5547C15.7444 29.4711 13.0105 28.5215 10.737 26.8332C7.67804 24.82 5.45033 21.7623 4.46678 18.2269C3.99615 16.6825 3.8756 15.0521 4.11396 13.4549C4.35232 11.8577 4.94355 10.3343 5.8444 8.99594C6.74525 7.65762 7.93291 6.53831 9.32049 5.71994C10.7081 4.90156 12.2605 4.40481 13.864 4.26605C17.4991 3.85669 21.1588 4.78325 24.165 6.87405C26.575 8.35816 28.4746 10.5465 29.609 13.1454C30.7435 15.7442 31.0583 18.6291 30.5112 21.4126C30.4084 21.8207 30.4361 22.2508 30.5904 22.6421C30.7447 23.0335 31.0178 23.3663 31.3709 23.5933L89.2621 60.7914C89.6963 61.0679 90.0704 61.4295 90.3621 61.8545C90.6538 62.2796 90.857 62.7593 90.9596 63.265ZM109.314 26.8292C107.04 28.517 104.305 29.4661 101.478 29.5489C98.6504 29.6318 95.8653 28.8444 93.4968 27.2927C93.1583 27.0448 92.7508 26.9099 92.3317 26.907C91.9127 26.9041 91.5033 27.0334 91.1615 27.2766L69.042 43.0329L63.7395 39.6225L88.6802 23.5732C89.0326 23.3464 89.3052 23.0143 89.4594 22.6238C89.6137 22.2333 89.6418 21.804 89.54 21.3966C89.0038 18.6125 89.3245 15.7307 90.4594 13.1339C91.5944 10.5371 93.4899 8.34822 95.8941 6.85799C102.292 2.53072 110.518 3.48565 114.215 8.9805C117.912 14.4754 115.71 22.502 109.314 26.8292Z" fill="#FF9F0D"/>
</svg>
