<svg width="89" height="69" viewBox="0 0 89 69" fill="none" xmlns="http://www.w3.org/2000/svg">
<path d="M65.9825 68.6102L71.6748 40.0546C76.3028 39.6506 80.5957 37.4664 83.6554 33.9591C86.715 30.4518 88.3043 25.8932 88.0907 21.237C87.8771 16.5808 85.8771 12.188 82.5093 8.97752C79.1414 5.76709 74.6667 3.98785 70.0213 4.01211C65.9783 3.99774 62.0513 5.36706 58.8886 7.89401C57.2412 5.46198 55.0259 3.47121 52.4359 2.09527C49.8458 0.719328 46.9596 0 44.0289 0C41.0982 0 38.212 0.719328 35.6219 2.09527C33.0319 3.47121 30.8166 5.46198 29.1692 7.89401C26.0065 5.36706 22.0794 3.99774 18.0365 4.01211C13.407 4.01168 8.95539 5.80153 5.60726 9.00953C2.25912 12.2175 0.272023 16.5969 0.0590986 21.2371C-0.153826 25.8772 1.4238 30.4213 4.46399 33.9244C7.50417 37.4275 11.773 39.6202 16.383 40.0466L22.0753 68.6102L25.9942 67.8238L24.8745 62.1905H63.1833L62.0636 67.8077L65.9825 68.6102ZM56.3313 58.1782L58.0048 46.4262L54.046 45.8564L52.2925 58.1782H46.0283V36.1105H42.0295V58.1782H35.7653L34.0118 45.8564L30.053 46.4262L31.7265 58.1782H24.0747L19.9959 37.7155C19.9037 37.2623 19.6583 36.8551 19.3013 36.5626C18.9442 36.2701 18.4974 36.1104 18.0365 36.1105C14.3245 36.1105 10.7646 34.631 8.13986 31.9974C5.51512 29.3638 4.04055 25.7919 4.04055 22.0675C4.04055 18.343 5.51512 14.7711 8.13986 12.1375C10.7646 9.50395 14.3245 8.02441 18.0365 8.02441C19.9419 8.01951 21.8278 8.40892 23.5765 9.16832C25.3251 9.92771 26.8989 11.0408 28.1995 12.4379C28.4217 12.6737 28.6977 12.8519 29.0036 12.9572C29.3096 13.0625 29.6364 13.0917 29.9561 13.0424C30.2758 12.9931 30.5788 12.8667 30.8391 12.6741C31.0994 12.4814 31.3092 12.2283 31.4506 11.9364C32.5928 9.56299 34.3788 7.56082 36.6037 6.15975C38.8286 4.75868 41.4021 4.01548 44.0289 4.01548C46.6557 4.01548 49.2292 4.75868 51.4541 6.15975C53.679 7.56082 55.465 9.56299 56.6072 11.9364C56.7486 12.2283 56.9584 12.4814 57.2187 12.6741C57.479 12.8667 57.782 12.9931 58.1017 13.0424C58.4214 13.0917 58.7482 13.0625 59.0542 12.9572C59.3601 12.8519 59.6361 12.6737 59.8583 12.4379C61.1589 11.0408 62.7327 9.92771 64.4813 9.16832C66.23 8.40892 68.1159 8.01951 70.0213 8.02441C73.7333 8.02441 77.2932 9.50395 79.9179 12.1375C82.5427 14.7711 84.0172 18.343 84.0172 22.0675C84.0172 25.7919 82.5427 29.3638 79.9179 31.9974C77.2932 34.631 73.7333 36.1105 70.0213 36.1105C69.5604 36.1104 69.1136 36.2701 68.7565 36.5626C68.3995 36.8551 68.1541 37.2623 68.0619 37.7155L63.9831 58.1782H56.3313Z" fill="#FF9F0D"/>
</svg>
