<svg width="152" height="24" viewBox="0 0 152 24" fill="none" xmlns="http://www.w3.org/2000/svg">
<path d="M23.3665 8.57341L15.9853 7.4467L12.678 0.394377C12.606 0.273666 12.506 0.174152 12.3874 0.10517C12.2688 0.0361884 12.1355 0 12 0C11.8645 0 11.7312 0.0361884 11.6126 0.10517C11.494 0.174152 11.394 0.273666 11.322 0.394377L8.0147 7.45633L0.636549 8.57341C0.502888 8.58719 0.375749 8.6408 0.270074 8.72792C0.1644 8.81504 0.084581 8.93206 0.0399998 9.06523C-0.0045814 9.19839 -0.0120724 9.34216 0.0184071 9.47965C0.0488867 9.61713 0.11607 9.74262 0.212061 9.84135L5.5716 15.3465L4.30425 23.121C4.28803 23.2643 4.3098 23.4096 4.36715 23.5407C4.4245 23.6718 4.51521 23.7838 4.62926 23.8641C4.74331 23.9445 4.87627 23.9902 5.01346 23.9961C5.15065 24.0021 5.28673 23.9681 5.40669 23.8978L12 20.2513L18.5903 23.9011C18.7102 23.9713 18.8463 24.0053 18.9835 23.9993C19.1207 23.9934 19.2536 23.9477 19.3677 23.8673C19.4817 23.787 19.5724 23.6751 19.6298 23.5439C19.6871 23.4128 19.7089 23.2676 19.6927 23.1242L18.4284 15.3465L23.7879 9.84135C23.8839 9.74262 23.9511 9.61713 23.9816 9.47965C24.0121 9.34216 24.0046 9.19839 23.96 9.06523C23.9154 8.93206 23.8356 8.81504 23.7299 8.72792C23.6242 8.6408 23.4971 8.58719 23.3634 8.57341H23.3665Z" fill="#FF9F0D"/>
<path d="M55.3665 8.57341L47.9853 7.4467L44.678 0.394377C44.606 0.273666 44.506 0.174152 44.3874 0.10517C44.2688 0.0361884 44.1355 0 44 0C43.8645 0 43.7312 0.0361884 43.6126 0.10517C43.494 0.174152 43.394 0.273666 43.322 0.394377L40.0147 7.45633L32.6365 8.57341C32.5029 8.58719 32.3757 8.6408 32.2701 8.72792C32.1644 8.81504 32.0846 8.93206 32.04 9.06523C31.9954 9.19839 31.9879 9.34216 32.0184 9.47965C32.0489 9.61713 32.1161 9.74262 32.2121 9.84135L37.5716 15.3465L36.3042 23.121C36.288 23.2643 36.3098 23.4096 36.3671 23.5407C36.4245 23.6718 36.5152 23.7838 36.6293 23.8641C36.7433 23.9445 36.8763 23.9902 37.0135 23.9961C37.1506 24.0021 37.2867 23.9681 37.4067 23.8978L44 20.2513L50.5903 23.9011C50.7102 23.9713 50.8463 24.0053 50.9835 23.9993C51.1207 23.9934 51.2536 23.9477 51.3677 23.8673C51.4817 23.787 51.5724 23.6751 51.6298 23.5439C51.6871 23.4128 51.7089 23.2676 51.6927 23.1242L50.4284 15.3465L55.7879 9.84135C55.8839 9.74262 55.9511 9.61713 55.9816 9.47965C56.0121 9.34216 56.0046 9.19839 55.96 9.06523C55.9154 8.93206 55.8356 8.81504 55.7299 8.72792C55.6242 8.6408 55.4971 8.58719 55.3634 8.57341H55.3665Z" fill="#FF9F0D"/>
<path d="M87.3665 8.57341L79.9853 7.4467L76.678 0.394377C76.606 0.273666 76.506 0.174152 76.3874 0.10517C76.2688 0.0361884 76.1355 0 76 0C75.8645 0 75.7312 0.0361884 75.6126 0.10517C75.494 0.174152 75.394 0.273666 75.322 0.394377L72.0147 7.45633L64.6365 8.57341C64.5029 8.58719 64.3757 8.6408 64.2701 8.72792C64.1644 8.81504 64.0846 8.93206 64.04 9.06523C63.9954 9.19839 63.9879 9.34216 64.0184 9.47965C64.0489 9.61713 64.1161 9.74262 64.2121 9.84135L69.5716 15.3465L68.3042 23.121C68.288 23.2643 68.3098 23.4096 68.3671 23.5407C68.4245 23.6718 68.5152 23.7838 68.6293 23.8641C68.7433 23.9445 68.8763 23.9902 69.0135 23.9961C69.1506 24.0021 69.2867 23.9681 69.4067 23.8978L76 20.2513L82.5903 23.9011C82.7102 23.9713 82.8463 24.0053 82.9835 23.9993C83.1207 23.9934 83.2536 23.9477 83.3677 23.8673C83.4817 23.787 83.5724 23.6751 83.6298 23.5439C83.6871 23.4128 83.7089 23.2676 83.6927 23.1242L82.4284 15.3465L87.7879 9.84135C87.8839 9.74262 87.9511 9.61713 87.9816 9.47965C88.0121 9.34216 88.0046 9.19839 87.96 9.06523C87.9154 8.93206 87.8356 8.81504 87.7299 8.72792C87.6242 8.6408 87.4971 8.58719 87.3634 8.57341H87.3665Z" fill="#FF9F0D"/>
<path d="M119.367 8.57341L111.985 7.4467L108.678 0.394377C108.606 0.273666 108.506 0.174152 108.387 0.10517C108.269 0.0361884 108.136 0 108 0C107.864 0 107.731 0.0361884 107.613 0.10517C107.494 0.174152 107.394 0.273666 107.322 0.394377L104.015 7.45633L96.6365 8.57341C96.5029 8.58719 96.3757 8.6408 96.2701 8.72792C96.1644 8.81504 96.0846 8.93206 96.04 9.06523C95.9954 9.19839 95.9879 9.34216 96.0184 9.47965C96.0489 9.61713 96.1161 9.74262 96.2121 9.84135L101.572 15.3465L100.304 23.121C100.288 23.2643 100.31 23.4096 100.367 23.5407C100.425 23.6718 100.515 23.7838 100.629 23.8641C100.743 23.9445 100.876 23.9902 101.013 23.9961C101.151 24.0021 101.287 23.9681 101.407 23.8978L108 20.2513L114.59 23.9011C114.71 23.9713 114.846 24.0053 114.983 23.9993C115.121 23.9934 115.254 23.9477 115.368 23.8673C115.482 23.787 115.572 23.6751 115.63 23.5439C115.687 23.4128 115.709 23.2676 115.693 23.1242L114.428 15.3465L119.788 9.84135C119.884 9.74262 119.951 9.61713 119.982 9.47965C120.012 9.34216 120.005 9.19839 119.96 9.06523C119.915 8.93206 119.836 8.81504 119.73 8.72792C119.624 8.6408 119.497 8.58719 119.363 8.57341H119.367Z" fill="#FF9F0D"/>
<path d="M151.367 8.57341L143.985 7.4467L140.678 0.394377C140.606 0.273666 140.506 0.174152 140.387 0.10517C140.269 0.0361884 140.136 0 140 0C139.864 0 139.731 0.0361884 139.613 0.10517C139.494 0.174152 139.394 0.273666 139.322 0.394377L136.015 7.45633L128.637 8.57341C128.503 8.58719 128.376 8.6408 128.27 8.72792C128.164 8.81504 128.085 8.93206 128.04 9.06523C127.995 9.19839 127.988 9.34216 128.018 9.47965C128.049 9.61713 128.116 9.74262 128.212 9.84135L133.572 15.3465L132.304 23.121C132.288 23.2643 132.31 23.4096 132.367 23.5407C132.425 23.6718 132.515 23.7838 132.629 23.8641C132.743 23.9445 132.876 23.9902 133.013 23.9961C133.151 24.0021 133.287 23.9681 133.407 23.8978L140 20.2513L146.59 23.9011C146.71 23.9713 146.846 24.0053 146.983 23.9993C147.121 23.9934 147.254 23.9477 147.368 23.8673C147.482 23.787 147.572 23.6751 147.63 23.5439C147.687 23.4128 147.709 23.2676 147.693 23.1242L146.428 15.3465L151.788 9.84135C151.884 9.74262 151.951 9.61713 151.982 9.47965C152.012 9.34216 152.005 9.19839 151.96 9.06523C151.915 8.93206 151.836 8.81504 151.73 8.72792C151.624 8.6408 151.497 8.58719 151.363 8.57341H151.367Z" fill="#E0E0E0"/>
</svg>
